<svg xmlns="http://www.w3.org/2000/svg" width="960" height="540" viewBox="0 0 960 540">
  <rect width="100%" height="100%" fill="#f8fafc" />
  <text x="80" y="32" font-size="24" font-family="Arial, sans-serif" fill="#102a43">Backtest Cumulative Return</text>
  <line x1="80" y1="60" x2="80" y2="470" stroke="#7b8794" stroke-width="1.5" />
  <line x1="80" y1="470" x2="920" y2="470" stroke="#7b8794" stroke-width="1.5" />
  <polyline fill="none" stroke="#1f77b4" stroke-width="3" points="80.0,187.9 124.2,171.1 168.4,160.6 212.6,150.9 256.8,147.8 301.1,156.1 345.3,146.5 389.5,134.7 433.7,131.9 477.9,132.6 522.1,136.8 566.3,128.7 610.5,119.3 654.7,106.1 698.9,100.1 743.2,89.2 787.4,85.2 831.6,94.1 875.8,94.8 920.0,79.5" />
  <polyline fill="none" stroke="#ef8354" stroke-width="3" points="80.0,200.7 124.2,195.3 168.4,193.2 212.6,186.5 256.8,185.9 301.1,184.7 345.3,178.4 389.5,173.4 433.7,172.5 477.9,170.9 522.1,170.0 566.3,166.6 610.5,161.8 654.7,159.4 698.9,153.9 743.2,146.2 787.4,140.8 831.6,139.6 875.8,137.6 920.0,127.6" />
  <text x="770" y="80" font-size="12" fill="#1f77b4">Strategy</text>
  <text x="770" y="100" font-size="12" fill="#ef8354">Benchmark</text>
  <text x="80.0" y="515" text-anchor="middle" font-size="12" fill="#5f6b7a">2024-04</text><text x="124.2" y="515" text-anchor="middle" font-size="12" fill="#5f6b7a">2024-05</text><text x="168.4" y="515" text-anchor="middle" font-size="12" fill="#5f6b7a">2024-06</text><text x="212.6" y="515" text-anchor="middle" font-size="12" fill="#5f6b7a">2024-07</text><text x="256.8" y="515" text-anchor="middle" font-size="12" fill="#5f6b7a">2024-08</text><text x="301.1" y="515" text-anchor="middle" font-size="12" fill="#5f6b7a">2024-09</text><text x="345.3" y="515" text-anchor="middle" font-size="12" fill="#5f6b7a">2024-10</text><text x="389.5" y="515" text-anchor="middle" font-size="12" fill="#5f6b7a">2024-11</text><text x="433.7" y="515" text-anchor="middle" font-size="12" fill="#5f6b7a">2024-12</text><text x="477.9" y="515" text-anchor="middle" font-size="12" fill="#5f6b7a">2025-01</text><text x="522.1" y="515" text-anchor="middle" font-size="12" fill="#5f6b7a">2025-02</text><text x="566.3" y="515" text-anchor="middle" font-size="12" fill="#5f6b7a">2025-03</text><text x="610.5" y="515" text-anchor="middle" font-size="12" fill="#5f6b7a">2025-04</text><text x="654.7" y="515" text-anchor="middle" font-size="12" fill="#5f6b7a">2025-05</text><text x="698.9" y="515" text-anchor="middle" font-size="12" fill="#5f6b7a">2025-06</text><text x="743.2" y="515" text-anchor="middle" font-size="12" fill="#5f6b7a">2025-07</text><text x="787.4" y="515" text-anchor="middle" font-size="12" fill="#5f6b7a">2025-08</text><text x="831.6" y="515" text-anchor="middle" font-size="12" fill="#5f6b7a">2025-09</text><text x="875.8" y="515" text-anchor="middle" font-size="12" fill="#5f6b7a">2025-10</text><text x="920.0" y="515" text-anchor="middle" font-size="12" fill="#5f6b7a">2025-11</text>
</svg>