<svg xmlns="http://www.w3.org/2000/svg" width="960" height="420">
  <rect width="100%" height="100%" fill="#f8fafc"/>
  <text x="60" y="32" font-size="24" font-family="Arial, sans-serif" fill="#0f172a">Decision OS Backtest Drawdown Curve</text>
  <line x1="60" y1="340" x2="900" y2="340" stroke="#94a3b8"/>
  <line x1="60" y1="60" x2="60" y2="340" stroke="#94a3b8"/>
  <polyline fill="none" stroke="#2563eb" stroke-width="3" points="60.00,60.00 71.83,60.00 83.66,60.00 95.49,60.00 107.32,60.00 119.15,60.00 130.99,60.00 142.82,60.00 154.65,60.00 166.48,60.00 178.31,60.00 190.14,60.00 201.97,60.00 213.80,60.00 225.63,60.00 237.46,60.00 249.30,60.00 261.13,60.00 272.96,60.00 284.79,60.00 296.62,60.00 308.45,60.00 320.28,60.00 332.11,60.00 343.94,60.00 355.77,60.00 367.61,60.00 379.44,60.00 391.27,60.00 403.10,60.00 414.93,60.00 426.76,60.00 438.59,60.00 450.42,60.00 462.25,60.00 474.08,60.00 485.92,60.00 497.75,60.00 509.58,60.00 521.41,60.00 533.24,60.00 545.07,60.00 556.90,60.00 568.73,60.00 580.56,60.00 592.39,60.00 604.23,60.00 616.06,60.00 627.89,60.00 639.72,60.00 651.55,60.00 663.38,60.00 675.21,60.00 687.04,60.00 698.87,60.00 710.70,60.00 722.54,60.00 734.37,60.00 746.20,60.00 758.03,60.00 769.86,60.00 781.69,60.00 793.52,60.00 805.35,60.00 817.18,60.00 829.01,60.00 840.85,60.00 852.68,60.00 864.51,60.00 876.34,60.00 888.17,60.00 900.00,60.00"/>
  <polyline fill="none" stroke="#f97316" stroke-width="3" points="60.00,60.00 71.83,60.00 83.66,60.00 95.49,60.00 107.32,60.00 119.15,60.00 130.99,60.00 142.82,60.00 154.65,60.00 166.48,60.00 178.31,60.00 190.14,60.00 201.97,60.00 213.80,60.00 225.63,60.00 237.46,60.00 249.30,60.00 261.13,60.00 272.96,160.51 284.79,340.00 296.62,318.09 308.45,60.00 320.28,60.00 332.11,60.00 343.94,60.00 355.77,60.00 367.61,60.00 379.44,60.00 391.27,60.00 403.10,60.00 414.93,60.00 426.76,60.00 438.59,60.00 450.42,60.00 462.25,60.00 474.08,60.00 485.92,60.00 497.75,60.00 509.58,60.00 521.41,60.00 533.24,60.00 545.07,60.00 556.90,60.00 568.73,99.70 580.56,60.00 592.39,60.00 604.23,60.00 616.06,60.00 627.89,60.00 639.72,60.00 651.55,60.00 663.38,60.00 675.21,60.00 687.04,60.00 698.87,60.00 710.70,60.00 722.54,60.00 734.37,60.00 746.20,60.00 758.03,60.00 769.86,60.00 781.69,60.00 793.52,60.00 805.35,60.00 817.18,60.00 829.01,60.00 840.85,60.00 852.68,60.00 864.51,60.00 876.34,60.00 888.17,60.00 900.00,60.00"/>
  <text x="740" y="78" font-size="12" font-family="Arial, sans-serif" fill="#2563eb">Strategy</text>
  <text x="810" y="78" font-size="12" font-family="Arial, sans-serif" fill="#f97316">Benchmark</text>
</svg>