<svg xmlns="http://www.w3.org/2000/svg" width="960" height="420">
  <rect width="100%" height="100%" fill="#f8fafc"/>
  <text x="60" y="32" font-size="24" font-family="Arial, sans-serif" fill="#0f172a">Decision OS Backtest Cumulative Return</text>
  <line x1="60" y1="340" x2="900" y2="340" stroke="#94a3b8"/>
  <line x1="60" y1="60" x2="60" y2="340" stroke="#94a3b8"/>
  <polyline fill="none" stroke="#2563eb" stroke-width="3" points="60.00,338.52 71.83,335.59 83.66,332.64 95.49,329.43 107.32,325.12 119.15,321.14 130.99,317.89 142.82,315.16 154.65,310.67 166.48,307.36 178.31,303.28 190.14,298.60 201.97,295.38 213.80,291.74 225.63,290.98 237.46,290.60 249.30,288.53 261.13,286.76 272.96,286.24 284.79,284.90 296.62,283.73 308.45,281.13 320.28,276.38 332.11,272.31 343.94,268.54 355.77,264.97 367.61,261.40 379.44,257.77 391.27,252.67 403.10,251.40 414.93,250.67 426.76,249.28 438.59,248.17 450.42,247.86 462.25,245.97 474.08,244.55 485.92,243.97 497.75,242.53 509.58,238.60 521.41,235.60 533.24,230.90 545.07,228.36 556.90,225.71 568.73,223.34 580.56,220.68 592.39,218.64 604.23,215.54 616.06,212.45 627.89,209.38 639.72,207.05 651.55,204.73 663.38,201.25 675.21,196.83 687.04,192.43 698.87,189.16 710.70,185.18 722.54,181.74 734.37,178.45 746.20,173.57 758.03,169.50 769.86,166.37 781.69,163.35 793.52,160.05 805.35,155.37 817.18,150.40 829.01,146.52 840.85,142.83 852.68,139.24 864.51,135.44 876.34,132.25 888.17,127.97 900.00,123.66"/>
  <polyline fill="none" stroke="#f97316" stroke-width="3" points="60.00,340.00 71.83,338.62 83.66,337.64 95.49,336.43 107.32,334.44 119.15,332.53 130.99,331.32 142.82,330.52 154.65,328.45 166.48,327.47 178.31,324.11 190.14,321.53 201.97,319.88 213.80,318.50 225.63,318.38 237.46,317.14 249.30,316.49 261.13,314.91 272.96,315.45 284.79,316.42 296.62,316.30 308.45,314.19 320.28,311.06 332.11,307.45 343.94,306.11 355.77,303.81 367.61,301.36 379.44,299.05 391.27,295.36 403.10,293.07 414.93,292.06 426.76,289.65 438.59,287.96 450.42,285.30 462.25,281.66 474.08,278.39 485.92,278.18 497.75,275.30 509.58,271.47 521.41,268.57 533.24,262.84 545.07,258.30 556.90,256.30 568.73,256.72 580.56,254.51 592.39,251.77 604.23,246.39 616.06,240.14 627.89,236.52 639.72,235.28 651.55,233.05 663.38,228.89 675.21,223.10 687.04,211.79 698.87,207.47 710.70,203.47 722.54,196.76 734.37,191.71 746.20,181.18 758.03,171.96 769.86,163.45 781.69,162.30 793.52,158.87 805.35,151.35 817.18,138.16 829.01,129.47 840.85,118.30 852.68,109.28 864.51,100.98 876.34,92.47 888.17,75.94 900.00,60.00"/>
  <text x="740" y="78" font-size="12" font-family="Arial, sans-serif" fill="#2563eb">Strategy</text>
  <text x="810" y="78" font-size="12" font-family="Arial, sans-serif" fill="#f97316">Benchmark</text>
</svg>