<svg xmlns="http://www.w3.org/2000/svg" width="960" height="540" viewBox="0 0 960 540">
  <rect width="100%" height="100%" fill="#f8fafc" />
  <text x="200" y="32" font-size="24" font-family="Arial, sans-serif" fill="#102a43">Channel Revenue Share</text>
  <line x1="200.0" y1="60" x2="200.0" y2="500" stroke="#d9dde7" stroke-width="1" /><text x="200.0" y="528" text-anchor="middle" font-size="12" fill="#5f6b7a">0.0%</text><line x1="340.0" y1="60" x2="340.0" y2="500" stroke="#d9dde7" stroke-width="1" /><text x="340.0" y="528" text-anchor="middle" font-size="12" fill="#5f6b7a">20.0%</text><line x1="480.0" y1="60" x2="480.0" y2="500" stroke="#d9dde7" stroke-width="1" /><text x="480.0" y="528" text-anchor="middle" font-size="12" fill="#5f6b7a">40.0%</text><line x1="620.0" y1="60" x2="620.0" y2="500" stroke="#d9dde7" stroke-width="1" /><text x="620.0" y="528" text-anchor="middle" font-size="12" fill="#5f6b7a">60.0%</text><line x1="760.0" y1="60" x2="760.0" y2="500" stroke="#d9dde7" stroke-width="1" /><text x="760.0" y="528" text-anchor="middle" font-size="12" fill="#5f6b7a">80.0%</text><line x1="900.0" y1="60" x2="900.0" y2="500" stroke="#d9dde7" stroke-width="1" /><text x="900.0" y="528" text-anchor="middle" font-size="12" fill="#5f6b7a">100.0%</text>
  <rect x="200" y="79.4" width="472.6" height="49.3" rx="8" fill="#ef8354" /><rect x="200" y="167.4" width="90.4" height="49.3" rx="8" fill="#ef8354" /><rect x="200" y="255.4" width="55.7" height="49.3" rx="8" fill="#ef8354" /><rect x="200" y="343.4" width="46.0" height="49.3" rx="8" fill="#ef8354" /><rect x="200" y="431.4" width="35.3" height="49.3" rx="8" fill="#ef8354" />
  <text x="188" y="108.0" text-anchor="end" font-size="12" fill="#5f6b7a">Amazon</text><text x="188" y="196.0" text-anchor="end" font-size="12" fill="#5f6b7a">Offline Dealers</text><text x="188" y="284.0" text-anchor="end" font-size="12" fill="#5f6b7a">Independent Site</text><text x="188" y="372.0" text-anchor="end" font-size="12" fill="#5f6b7a">eBay</text><text x="188" y="460.0" text-anchor="end" font-size="12" fill="#5f6b7a">TikTok Shop</text>
  <text x="682.6" y="108.0" font-size="12" fill="#1f2933">67.5%</text><text x="300.4" y="196.0" font-size="12" fill="#1f2933">12.9%</text><text x="265.7" y="284.0" font-size="12" fill="#1f2933">8.0%</text><text x="256.0" y="372.0" font-size="12" fill="#1f2933">6.6%</text><text x="245.3" y="460.0" font-size="12" fill="#1f2933">5.0%</text>
</svg>