<svg xmlns="http://www.w3.org/2000/svg" width="960" height="540" viewBox="0 0 960 540">
  <rect width="100%" height="100%" fill="#f8fafc" />
  <text x="200" y="32" font-size="24" font-family="Arial, sans-serif" fill="#102a43">Best Scenario Landed Cost Breakdown</text>
  <line x1="200.0" y1="60" x2="200.0" y2="500" stroke="#d9dde7" stroke-width="1" /><text x="200.0" y="528" text-anchor="middle" font-size="12" fill="#5f6b7a">0</text><line x1="340.0" y1="60" x2="340.0" y2="500" stroke="#d9dde7" stroke-width="1" /><text x="340.0" y="528" text-anchor="middle" font-size="12" fill="#5f6b7a">67.89</text><line x1="480.0" y1="60" x2="480.0" y2="500" stroke="#d9dde7" stroke-width="1" /><text x="480.0" y="528" text-anchor="middle" font-size="12" fill="#5f6b7a">135.78</text><line x1="620.0" y1="60" x2="620.0" y2="500" stroke="#d9dde7" stroke-width="1" /><text x="620.0" y="528" text-anchor="middle" font-size="12" fill="#5f6b7a">203.68</text><line x1="760.0" y1="60" x2="760.0" y2="500" stroke="#d9dde7" stroke-width="1" /><text x="760.0" y="528" text-anchor="middle" font-size="12" fill="#5f6b7a">271.57</text><line x1="900.0" y1="60" x2="900.0" y2="500" stroke="#d9dde7" stroke-width="1" /><text x="900.0" y="528" text-anchor="middle" font-size="12" fill="#5f6b7a">339.46</text>
  <rect x="200" y="66.0" width="636.4" height="15.4" rx="8" fill="#ef8354" /><rect x="200" y="93.5" width="0.0" height="15.4" rx="8" fill="#ef8354" /><rect x="200" y="121.0" width="0.0" height="15.4" rx="8" fill="#ef8354" /><rect x="200" y="148.6" width="0.0" height="15.4" rx="8" fill="#ef8354" /><rect x="200" y="176.1" width="0.0" height="15.4" rx="8" fill="#ef8354" /><rect x="200" y="203.6" width="0.0" height="15.4" rx="8" fill="#ef8354" /><rect x="200" y="231.1" width="0.0" height="15.4" rx="8" fill="#ef8354" /><rect x="200" y="258.6" width="92.0" height="15.4" rx="8" fill="#ef8354" /><rect x="200" y="286.1" width="0.0" height="15.4" rx="8" fill="#ef8354" /><rect x="200" y="313.6" width="0.0" height="15.4" rx="8" fill="#ef8354" /><rect x="200" y="341.1" width="0.0" height="15.4" rx="8" fill="#ef8354" /><rect x="200" y="368.6" width="19.1" height="15.4" rx="8" fill="#ef8354" /><rect x="200" y="396.1" width="0.0" height="15.4" rx="8" fill="#ef8354" /><rect x="200" y="423.6" width="0.0" height="15.4" rx="8" fill="#ef8354" /><rect x="200" y="451.1" width="15.0" height="15.4" rx="8" fill="#ef8354" /><rect x="200" y="478.6" width="2.0" height="15.4" rx="8" fill="#ef8354" />
  <text x="188" y="77.8" text-anchor="end" font-size="12" fill="#5f6b7a">procurement_cost</text><text x="188" y="105.2" text-anchor="end" font-size="12" fill="#5f6b7a">china_inland_cost</text><text x="188" y="132.8" text-anchor="end" font-size="12" fill="#5f6b7a">export_fees</text><text x="188" y="160.2" text-anchor="end" font-size="12" fill="#5f6b7a">origin_handling_cost</text><text x="188" y="187.8" text-anchor="end" font-size="12" fill="#5f6b7a">international_freight_cost</text><text x="188" y="215.2" text-anchor="end" font-size="12" fill="#5f6b7a">insurance_cost</text><text x="188" y="242.8" text-anchor="end" font-size="12" fill="#5f6b7a">destination_handling_cost</text><text x="188" y="270.2" text-anchor="end" font-size="12" fill="#5f6b7a">compliance_cost</text><text x="188" y="297.8" text-anchor="end" font-size="12" fill="#5f6b7a">duty_cost</text><text x="188" y="325.2" text-anchor="end" font-size="12" fill="#5f6b7a">brokerage_cost</text><text x="188" y="352.8" text-anchor="end" font-size="12" fill="#5f6b7a">port_cost</text><text x="188" y="380.2" text-anchor="end" font-size="12" fill="#5f6b7a">ddp_risk_premium</text><text x="188" y="407.8" text-anchor="end" font-size="12" fill="#5f6b7a">warehousing_cost</text><text x="188" y="435.2" text-anchor="end" font-size="12" fill="#5f6b7a">last_mile_cost</text><text x="188" y="462.8" text-anchor="end" font-size="12" fill="#5f6b7a">working_capital_cost</text><text x="188" y="490.2" text-anchor="end" font-size="12" fill="#5f6b7a">return_reserve</text>
  <text x="846.4" y="77.8" font-size="12" fill="#1f2933">308.60</text><text x="210.0" y="105.2" font-size="12" fill="#1f2933">0</text><text x="210.0" y="132.8" font-size="12" fill="#1f2933">0</text><text x="210.0" y="160.2" font-size="12" fill="#1f2933">0</text><text x="210.0" y="187.8" font-size="12" fill="#1f2933">0</text><text x="210.0" y="215.2" font-size="12" fill="#1f2933">0</text><text x="210.0" y="242.8" font-size="12" fill="#1f2933">0</text><text x="302.0" y="270.2" font-size="12" fill="#1f2933">44.60</text><text x="210.0" y="297.8" font-size="12" fill="#1f2933">0</text><text x="210.0" y="325.2" font-size="12" fill="#1f2933">0</text><text x="210.0" y="352.8" font-size="12" fill="#1f2933">0</text><text x="229.1" y="380.2" font-size="12" fill="#1f2933">9.26</text><text x="210.0" y="407.8" font-size="12" fill="#1f2933">0</text><text x="210.0" y="435.2" font-size="12" fill="#1f2933">0</text><text x="225.0" y="462.8" font-size="12" fill="#1f2933">7.25</text><text x="212.0" y="490.2" font-size="12" fill="#1f2933">0.96</text>
</svg>