<svg xmlns="http://www.w3.org/2000/svg" width="960" height="540" viewBox="0 0 960 540">
  <rect width="100%" height="100%" fill="#f8fafc" />
  <text x="200" y="32" font-size="24" font-family="Arial, sans-serif" fill="#102a43">Monte Carlo Sensitivity</text>
  <line x1="200.0" y1="60" x2="200.0" y2="500" stroke="#d9dde7" stroke-width="1" /><text x="200.0" y="528" text-anchor="middle" font-size="12" fill="#5f6b7a">0</text><line x1="340.0" y1="60" x2="340.0" y2="500" stroke="#d9dde7" stroke-width="1" /><text x="340.0" y="528" text-anchor="middle" font-size="12" fill="#5f6b7a">5.92</text><line x1="480.0" y1="60" x2="480.0" y2="500" stroke="#d9dde7" stroke-width="1" /><text x="480.0" y="528" text-anchor="middle" font-size="12" fill="#5f6b7a">11.84</text><line x1="620.0" y1="60" x2="620.0" y2="500" stroke="#d9dde7" stroke-width="1" /><text x="620.0" y="528" text-anchor="middle" font-size="12" fill="#5f6b7a">17.76</text><line x1="760.0" y1="60" x2="760.0" y2="500" stroke="#d9dde7" stroke-width="1" /><text x="760.0" y="528" text-anchor="middle" font-size="12" fill="#5f6b7a">23.68</text><line x1="900.0" y1="60" x2="900.0" y2="500" stroke="#d9dde7" stroke-width="1" /><text x="900.0" y="528" text-anchor="middle" font-size="12" fill="#5f6b7a">29.60</text>
  <rect x="200" y="76.1" width="636.4" height="41.1" rx="8" fill="#ef8354" /><rect x="200" y="149.5" width="595.5" height="41.1" rx="8" fill="#ef8354" /><rect x="200" y="222.8" width="330.6" height="41.1" rx="8" fill="#ef8354" /><rect x="200" y="296.1" width="11.4" height="41.1" rx="8" fill="#ef8354" /><rect x="200" y="369.5" width="0.0" height="41.1" rx="8" fill="#ef8354" /><rect x="200" y="442.8" width="0.0" height="41.1" rx="8" fill="#ef8354" />
  <text x="188" y="100.7" text-anchor="end" font-size="12" fill="#5f6b7a">sell_price</text><text x="188" y="174.0" text-anchor="end" font-size="12" fill="#5f6b7a">procurement_cost</text><text x="188" y="247.3" text-anchor="end" font-size="12" fill="#5f6b7a">marketing_fee_rate</text><text x="188" y="320.7" text-anchor="end" font-size="12" fill="#5f6b7a">return_rate</text><text x="188" y="394.0" text-anchor="end" font-size="12" fill="#5f6b7a">logistics_cost</text><text x="188" y="467.3" text-anchor="end" font-size="12" fill="#5f6b7a">duty_cost</text>
  <text x="846.4" y="100.7" font-size="12" fill="#1f2933">26.91</text><text x="805.5" y="174.0" font-size="12" fill="#1f2933">25.18</text><text x="540.6" y="247.3" font-size="12" fill="#1f2933">13.98</text><text x="221.4" y="320.7" font-size="12" fill="#1f2933">0.48</text><text x="210.0" y="394.0" font-size="12" fill="#1f2933">0</text><text x="210.0" y="467.3" font-size="12" fill="#1f2933">0</text>
</svg>