<svg xmlns="http://www.w3.org/2000/svg" width="960" height="540" viewBox="0 0 960 540">
  <rect width="100%" height="100%" fill="#f8fafc" />
  <text x="200" y="32" font-size="24" font-family="Arial, sans-serif" fill="#102a43">Supplier Type Share</text>
  <line x1="200.0" y1="60" x2="200.0" y2="500" stroke="#d9dde7" stroke-width="1" /><text x="200.0" y="528" text-anchor="middle" font-size="12" fill="#5f6b7a">0.0%</text><line x1="340.0" y1="60" x2="340.0" y2="500" stroke="#d9dde7" stroke-width="1" /><text x="340.0" y="528" text-anchor="middle" font-size="12" fill="#5f6b7a">20.0%</text><line x1="480.0" y1="60" x2="480.0" y2="500" stroke="#d9dde7" stroke-width="1" /><text x="480.0" y="528" text-anchor="middle" font-size="12" fill="#5f6b7a">40.0%</text><line x1="620.0" y1="60" x2="620.0" y2="500" stroke="#d9dde7" stroke-width="1" /><text x="620.0" y="528" text-anchor="middle" font-size="12" fill="#5f6b7a">60.0%</text><line x1="760.0" y1="60" x2="760.0" y2="500" stroke="#d9dde7" stroke-width="1" /><text x="760.0" y="528" text-anchor="middle" font-size="12" fill="#5f6b7a">80.0%</text><line x1="900.0" y1="60" x2="900.0" y2="500" stroke="#d9dde7" stroke-width="1" /><text x="900.0" y="528" text-anchor="middle" font-size="12" fill="#5f6b7a">100.0%</text>
  <rect x="200" y="92.3" width="350.0" height="82.1" rx="8" fill="#ef8354" /><rect x="200" y="238.9" width="233.3" height="82.1" rx="8" fill="#ef8354" /><rect x="200" y="385.6" width="116.7" height="82.1" rx="8" fill="#ef8354" />
  <text x="188" y="137.3" text-anchor="end" font-size="12" fill="#5f6b7a">factory</text><text x="188" y="284.0" text-anchor="end" font-size="12" fill="#5f6b7a">trader</text><text x="188" y="430.7" text-anchor="end" font-size="12" fill="#5f6b7a">wholesaler</text>
  <text x="560.0" y="137.3" font-size="12" fill="#1f2933">50.0%</text><text x="443.3" y="284.0" font-size="12" fill="#1f2933">33.3%</text><text x="326.7" y="430.7" font-size="12" fill="#1f2933">16.7%</text>
</svg>