<svg xmlns="http://www.w3.org/2000/svg" width="960" height="540" viewBox="0 0 960 540">
  <rect width="100%" height="100%" fill="#f8fafc" />
  <text x="80" y="32" font-size="24" font-family="Arial, sans-serif" fill="#102a43">Alert Type Mix</text>
  <line x1="80" y1="60" x2="80" y2="450" stroke="#7b8794" stroke-width="1.5" />
  <line x1="80" y1="450" x2="920" y2="450" stroke="#7b8794" stroke-width="1.5" />
  <line x1="80" y1="450.0" x2="920" y2="450.0" stroke="#d9dde7" stroke-width="1" /><text x="68" y="455.0" text-anchor="end" font-size="12" fill="#5f6b7a">0</text><line x1="80" y1="372.0" x2="920" y2="372.0" stroke="#d9dde7" stroke-width="1" /><text x="68" y="377.0" text-anchor="end" font-size="12" fill="#5f6b7a">1.38</text><line x1="80" y1="294.0" x2="920" y2="294.0" stroke="#d9dde7" stroke-width="1" /><text x="68" y="299.0" text-anchor="end" font-size="12" fill="#5f6b7a">2.76</text><line x1="80" y1="216.0" x2="920" y2="216.0" stroke="#d9dde7" stroke-width="1" /><text x="68" y="221.0" text-anchor="end" font-size="12" fill="#5f6b7a">4.14</text><line x1="80" y1="138.0" x2="920" y2="138.0" stroke="#d9dde7" stroke-width="1" /><text x="68" y="143.0" text-anchor="end" font-size="12" fill="#5f6b7a">5.52</text><line x1="80" y1="60.0" x2="920" y2="60.0" stroke="#d9dde7" stroke-width="1" /><text x="68" y="65.0" text-anchor="end" font-size="12" fill="#5f6b7a">6.90</text>
  <rect x="126.2" y="110.9" width="117.6" height="339.1" rx="8" fill="#2ca58d" /><rect x="336.2" y="393.5" width="117.6" height="56.5" rx="8" fill="#2ca58d" /><rect x="546.2" y="393.5" width="117.6" height="56.5" rx="8" fill="#2ca58d" /><rect x="756.2" y="393.5" width="117.6" height="56.5" rx="8" fill="#2ca58d" />
  <text x="185.0" y="100.9" text-anchor="middle" font-size="12" fill="#1f2933">6</text><text x="395.0" y="383.5" text-anchor="middle" font-size="12" fill="#1f2933">1</text><text x="605.0" y="383.5" text-anchor="middle" font-size="12" fill="#1f2933">1</text><text x="815.0" y="383.5" text-anchor="middle" font-size="12" fill="#1f2933">1</text>
  <text x="185.0" y="512" text-anchor="middle" font-size="12" fill="#5f6b7a">refund_spike</text><text x="395.0" y="512" text-anchor="middle" font-size="12" fill="#5f6b7a">margin_floor_breach</text><text x="605.0" y="512" text-anchor="middle" font-size="12" fill="#5f6b7a">dispute_spike</text><text x="815.0" y="512" text-anchor="middle" font-size="12" fill="#5f6b7a">refund_change_point</text>
</svg>