<svg xmlns="http://www.w3.org/2000/svg" width="960" height="540" viewBox="0 0 960 540">
  <rect width="100%" height="100%" fill="#f8fafc" />
  <text x="200" y="32" font-size="24" font-family="Arial, sans-serif" fill="#102a43">Budget Allocation Recommendation</text>
  <line x1="200.0" y1="60" x2="200.0" y2="500" stroke="#d9dde7" stroke-width="1" /><text x="200.0" y="528" text-anchor="middle" font-size="12" fill="#5f6b7a">0.0%</text><line x1="340.0" y1="60" x2="340.0" y2="500" stroke="#d9dde7" stroke-width="1" /><text x="340.0" y="528" text-anchor="middle" font-size="12" fill="#5f6b7a">20.0%</text><line x1="480.0" y1="60" x2="480.0" y2="500" stroke="#d9dde7" stroke-width="1" /><text x="480.0" y="528" text-anchor="middle" font-size="12" fill="#5f6b7a">40.0%</text><line x1="620.0" y1="60" x2="620.0" y2="500" stroke="#d9dde7" stroke-width="1" /><text x="620.0" y="528" text-anchor="middle" font-size="12" fill="#5f6b7a">60.0%</text><line x1="760.0" y1="60" x2="760.0" y2="500" stroke="#d9dde7" stroke-width="1" /><text x="760.0" y="528" text-anchor="middle" font-size="12" fill="#5f6b7a">80.0%</text><line x1="900.0" y1="60" x2="900.0" y2="500" stroke="#d9dde7" stroke-width="1" /><text x="900.0" y="528" text-anchor="middle" font-size="12" fill="#5f6b7a">100.0%</text>
  <rect x="200" y="76.1" width="14.0" height="41.1" rx="8" fill="#ef8354" /><rect x="200" y="149.5" width="385.0" height="41.1" rx="8" fill="#ef8354" /><rect x="200" y="222.8" width="246.8" height="41.1" rx="8" fill="#ef8354" /><rect x="200" y="296.1" width="14.0" height="41.1" rx="8" fill="#ef8354" /><rect x="200" y="369.5" width="26.2" height="41.1" rx="8" fill="#ef8354" /><rect x="200" y="442.8" width="14.0" height="41.1" rx="8" fill="#ef8354" />
  <text x="188" y="100.7" text-anchor="end" font-size="12" fill="#5f6b7a">Amazon</text><text x="188" y="174.0" text-anchor="end" font-size="12" fill="#5f6b7a">B2B</text><text x="188" y="247.3" text-anchor="end" font-size="12" fill="#5f6b7a">TikTok Shop</text><text x="188" y="320.7" text-anchor="end" font-size="12" fill="#5f6b7a">DTC</text><text x="188" y="394.0" text-anchor="end" font-size="12" fill="#5f6b7a">Walmart</text><text x="188" y="467.3" text-anchor="end" font-size="12" fill="#5f6b7a">eBay</text>
  <text x="224.0" y="100.7" font-size="12" fill="#1f2933">2.0%</text><text x="595.0" y="174.0" font-size="12" fill="#1f2933">55.0%</text><text x="456.8" y="247.3" font-size="12" fill="#1f2933">35.3%</text><text x="224.0" y="320.7" font-size="12" fill="#1f2933">2.0%</text><text x="236.2" y="394.0" font-size="12" fill="#1f2933">3.7%</text><text x="224.0" y="467.3" font-size="12" fill="#1f2933">2.0%</text>
</svg>