<svg xmlns="http://www.w3.org/2000/svg" width="960" height="540" viewBox="0 0 960 540">
  <rect width="100%" height="100%" fill="#f8fafc" />
  <text x="80" y="32" font-size="24" font-family="Arial, sans-serif" fill="#102a43">Daily Revenue Trend</text>
  <line x1="80" y1="60" x2="80" y2="470" stroke="#7b8794" stroke-width="1.5" />
  <line x1="80" y1="470" x2="920" y2="470" stroke="#7b8794" stroke-width="1.5" />
  <line x1="80" y1="470.0" x2="920" y2="470.0" stroke="#d9dde7" stroke-width="1" /><text x="68" y="475.0" text-anchor="end" font-size="12" fill="#5f6b7a">0</text><line x1="80" y1="388.0" x2="920" y2="388.0" stroke="#d9dde7" stroke-width="1" /><text x="68" y="393.0" text-anchor="end" font-size="12" fill="#5f6b7a">1786</text><line x1="80" y1="306.0" x2="920" y2="306.0" stroke="#d9dde7" stroke-width="1" /><text x="68" y="311.0" text-anchor="end" font-size="12" fill="#5f6b7a">3573</text><line x1="80" y1="224.0" x2="920" y2="224.0" stroke="#d9dde7" stroke-width="1" /><text x="68" y="229.0" text-anchor="end" font-size="12" fill="#5f6b7a">5359</text><line x1="80" y1="142.0" x2="920" y2="142.0" stroke="#d9dde7" stroke-width="1" /><text x="68" y="147.0" text-anchor="end" font-size="12" fill="#5f6b7a">7146</text><line x1="80" y1="60.0" x2="920" y2="60.0" stroke="#d9dde7" stroke-width="1" /><text x="68" y="65.0" text-anchor="end" font-size="12" fill="#5f6b7a">8932</text>
  <polyline fill="none" stroke="#1f77b4" stroke-width="3" points="80.0,262.5 144.6,153.7 209.2,230.8 273.8,324.0 338.5,313.5 403.1,97.3 467.7,268.9 532.3,148.2 596.9,218.5 661.5,319.0 726.2,308.4 790.8,103.7 855.4,256.6 920.0,142.3" />
  <circle cx="80.0" cy="262.5" r="4" fill="#1f77b4" /><circle cx="144.6" cy="153.7" r="4" fill="#1f77b4" /><circle cx="209.2" cy="230.8" r="4" fill="#1f77b4" /><circle cx="273.8" cy="324.0" r="4" fill="#1f77b4" /><circle cx="338.5" cy="313.5" r="4" fill="#1f77b4" /><circle cx="403.1" cy="97.3" r="4" fill="#1f77b4" /><circle cx="467.7" cy="268.9" r="4" fill="#1f77b4" /><circle cx="532.3" cy="148.2" r="4" fill="#1f77b4" /><circle cx="596.9" cy="218.5" r="4" fill="#1f77b4" /><circle cx="661.5" cy="319.0" r="4" fill="#1f77b4" /><circle cx="726.2" cy="308.4" r="4" fill="#1f77b4" /><circle cx="790.8" cy="103.7" r="4" fill="#1f77b4" /><circle cx="855.4" cy="256.6" r="4" fill="#1f77b4" /><circle cx="920.0" cy="142.3" r="4" fill="#1f77b4" />
  <text x="80.0" y="252.5" text-anchor="middle" font-size="11" fill="#1f77b4">4520</text><text x="144.6" y="143.7" text-anchor="middle" font-size="11" fill="#1f77b4">6890</text><text x="209.2" y="220.8" text-anchor="middle" font-size="11" fill="#1f77b4">5210</text><text x="273.8" y="314.0" text-anchor="middle" font-size="11" fill="#1f77b4">3180</text><text x="338.5" y="303.5" text-anchor="middle" font-size="11" fill="#1f77b4">3410</text><text x="403.1" y="87.3" text-anchor="middle" font-size="11" fill="#1f77b4">8120</text><text x="467.7" y="258.9" text-anchor="middle" font-size="11" fill="#1f77b4">4380</text><text x="532.3" y="138.2" text-anchor="middle" font-size="11" fill="#1f77b4">7010</text><text x="596.9" y="208.5" text-anchor="middle" font-size="11" fill="#1f77b4">5480</text><text x="661.5" y="309.0" text-anchor="middle" font-size="11" fill="#1f77b4">3290</text><text x="726.2" y="298.4" text-anchor="middle" font-size="11" fill="#1f77b4">3520</text><text x="790.8" y="93.7" text-anchor="middle" font-size="11" fill="#1f77b4">7980</text><text x="855.4" y="246.6" text-anchor="middle" font-size="11" fill="#1f77b4">4650</text><text x="920.0" y="132.3" text-anchor="middle" font-size="11" fill="#1f77b4">7140</text>
  <text x="80.0" y="515" text-anchor="middle" font-size="12" fill="#5f6b7a">2026-02-01</text><text x="144.6" y="515" text-anchor="middle" font-size="12" fill="#5f6b7a">2026-02-02</text><text x="209.2" y="515" text-anchor="middle" font-size="12" fill="#5f6b7a">2026-02-03</text><text x="273.8" y="515" text-anchor="middle" font-size="12" fill="#5f6b7a">2026-02-04</text><text x="338.5" y="515" text-anchor="middle" font-size="12" fill="#5f6b7a">2026-02-05</text><text x="403.1" y="515" text-anchor="middle" font-size="12" fill="#5f6b7a">2026-02-06</text><text x="467.7" y="515" text-anchor="middle" font-size="12" fill="#5f6b7a">2026-02-07</text><text x="532.3" y="515" text-anchor="middle" font-size="12" fill="#5f6b7a">2026-02-08</text><text x="596.9" y="515" text-anchor="middle" font-size="12" fill="#5f6b7a">2026-02-09</text><text x="661.5" y="515" text-anchor="middle" font-size="12" fill="#5f6b7a">2026-02-10</text><text x="726.2" y="515" text-anchor="middle" font-size="12" fill="#5f6b7a">2026-02-11</text><text x="790.8" y="515" text-anchor="middle" font-size="12" fill="#5f6b7a">2026-02-12</text><text x="855.4" y="515" text-anchor="middle" font-size="12" fill="#5f6b7a">2026-02-13</text><text x="920.0" y="515" text-anchor="middle" font-size="12" fill="#5f6b7a">2026-02-14</text>
</svg>