<svg xmlns="http://www.w3.org/2000/svg" width="960" height="540" viewBox="0 0 960 540">
  <rect width="100%" height="100%" fill="#f8fafc" />
  <text x="80" y="32" font-size="24" font-family="Arial, sans-serif" fill="#102a43">Backtest Cumulative Return</text>
  <line x1="80" y1="60" x2="80" y2="470" stroke="#7b8794" stroke-width="1.5" />
  <line x1="80" y1="470" x2="920" y2="470" stroke="#7b8794" stroke-width="1.5" />
  <polyline fill="none" stroke="#1f77b4" stroke-width="3" points="80.0,301.3 124.2,296.4 168.4,287.9 212.6,280.7 256.8,270.3 301.1,261.7 345.3,254.3 389.5,250.1 433.7,243.8 477.9,233.1 522.1,222.5 566.3,213.7 610.5,204.7 654.7,190.0 698.9,171.0 743.2,157.4 787.4,134.4 831.6,115.2 875.8,95.8 920.0,79.5" />
  <polyline fill="none" stroke="#ef8354" stroke-width="3" points="80.0,303.0 124.2,299.7 168.4,295.3 212.6,289.9 256.8,284.8 301.1,281.3 345.3,275.3 389.5,269.5 433.7,264.5 477.9,259.0 522.1,252.9 566.3,245.6 610.5,237.8 654.7,229.8 698.9,219.6 743.2,207.8 787.4,197.3 831.6,185.9 875.8,172.0 920.0,158.8" />
  <text x="770" y="80" font-size="12" fill="#1f77b4">Strategy</text>
  <text x="770" y="100" font-size="12" fill="#ef8354">Benchmark</text>
  <text x="80.0" y="515" text-anchor="middle" font-size="12" fill="#5f6b7a">2024-04</text><text x="124.2" y="515" text-anchor="middle" font-size="12" fill="#5f6b7a">2024-05</text><text x="168.4" y="515" text-anchor="middle" font-size="12" fill="#5f6b7a">2024-06</text><text x="212.6" y="515" text-anchor="middle" font-size="12" fill="#5f6b7a">2024-07</text><text x="256.8" y="515" text-anchor="middle" font-size="12" fill="#5f6b7a">2024-08</text><text x="301.1" y="515" text-anchor="middle" font-size="12" fill="#5f6b7a">2024-09</text><text x="345.3" y="515" text-anchor="middle" font-size="12" fill="#5f6b7a">2024-10</text><text x="389.5" y="515" text-anchor="middle" font-size="12" fill="#5f6b7a">2024-11</text><text x="433.7" y="515" text-anchor="middle" font-size="12" fill="#5f6b7a">2024-12</text><text x="477.9" y="515" text-anchor="middle" font-size="12" fill="#5f6b7a">2025-01</text><text x="522.1" y="515" text-anchor="middle" font-size="12" fill="#5f6b7a">2025-02</text><text x="566.3" y="515" text-anchor="middle" font-size="12" fill="#5f6b7a">2025-03</text><text x="610.5" y="515" text-anchor="middle" font-size="12" fill="#5f6b7a">2025-04</text><text x="654.7" y="515" text-anchor="middle" font-size="12" fill="#5f6b7a">2025-05</text><text x="698.9" y="515" text-anchor="middle" font-size="12" fill="#5f6b7a">2025-06</text><text x="743.2" y="515" text-anchor="middle" font-size="12" fill="#5f6b7a">2025-07</text><text x="787.4" y="515" text-anchor="middle" font-size="12" fill="#5f6b7a">2025-08</text><text x="831.6" y="515" text-anchor="middle" font-size="12" fill="#5f6b7a">2025-09</text><text x="875.8" y="515" text-anchor="middle" font-size="12" fill="#5f6b7a">2025-10</text><text x="920.0" y="515" text-anchor="middle" font-size="12" fill="#5f6b7a">2025-11</text>
</svg>