<svg xmlns="http://www.w3.org/2000/svg" width="960" height="540" viewBox="0 0 960 540">
  <rect width="100%" height="100%" fill="#f8fafc" />
  <text x="200" y="32" font-size="24" font-family="Arial, sans-serif" fill="#102a43">Monte Carlo ROI P50</text>
  <line x1="200.0" y1="60" x2="200.0" y2="500" stroke="#d9dde7" stroke-width="1" /><text x="200.0" y="528" text-anchor="middle" font-size="12" fill="#5f6b7a">0</text><line x1="340.0" y1="60" x2="340.0" y2="500" stroke="#d9dde7" stroke-width="1" /><text x="340.0" y="528" text-anchor="middle" font-size="12" fill="#5f6b7a">0.20</text><line x1="480.0" y1="60" x2="480.0" y2="500" stroke="#d9dde7" stroke-width="1" /><text x="480.0" y="528" text-anchor="middle" font-size="12" fill="#5f6b7a">0.40</text><line x1="620.0" y1="60" x2="620.0" y2="500" stroke="#d9dde7" stroke-width="1" /><text x="620.0" y="528" text-anchor="middle" font-size="12" fill="#5f6b7a">0.60</text><line x1="760.0" y1="60" x2="760.0" y2="500" stroke="#d9dde7" stroke-width="1" /><text x="760.0" y="528" text-anchor="middle" font-size="12" fill="#5f6b7a">0.80</text><line x1="900.0" y1="60" x2="900.0" y2="500" stroke="#d9dde7" stroke-width="1" /><text x="900.0" y="528" text-anchor="middle" font-size="12" fill="#5f6b7a">1</text>
  <rect x="200" y="76.1" width="83.3" height="41.1" rx="8" fill="#ef8354" /><rect x="200" y="149.5" width="300.5" height="41.1" rx="8" fill="#ef8354" /><rect x="200" y="222.8" width="131.7" height="41.1" rx="8" fill="#ef8354" /><rect x="200" y="296.1" width="29.3" height="41.1" rx="8" fill="#ef8354" /><rect x="200" y="369.5" width="88.2" height="41.1" rx="8" fill="#ef8354" /><rect x="200" y="442.8" width="67.0" height="41.1" rx="8" fill="#ef8354" />
  <text x="188" y="100.7" text-anchor="end" font-size="12" fill="#5f6b7a">Amazon</text><text x="188" y="174.0" text-anchor="end" font-size="12" fill="#5f6b7a">B2B</text><text x="188" y="247.3" text-anchor="end" font-size="12" fill="#5f6b7a">TikTok Shop</text><text x="188" y="320.7" text-anchor="end" font-size="12" fill="#5f6b7a">DTC</text><text x="188" y="394.0" text-anchor="end" font-size="12" fill="#5f6b7a">Walmart</text><text x="188" y="467.3" text-anchor="end" font-size="12" fill="#5f6b7a">eBay</text>
  <text x="293.3" y="100.7" font-size="12" fill="#1f2933">0.12</text><text x="510.5" y="174.0" font-size="12" fill="#1f2933">0.43</text><text x="341.7" y="247.3" font-size="12" fill="#1f2933">0.19</text><text x="239.3" y="320.7" font-size="12" fill="#1f2933">0.04</text><text x="298.2" y="394.0" font-size="12" fill="#1f2933">0.13</text><text x="277.0" y="467.3" font-size="12" fill="#1f2933">0.10</text>
</svg>