<svg xmlns="http://www.w3.org/2000/svg" width="960" height="540" viewBox="0 0 960 540">
  <rect width="100%" height="100%" fill="#f8fafc" />
  <text x="80" y="32" font-size="24" font-family="Arial, sans-serif" fill="#102a43">Traffic Source Session Share</text>
  <line x1="80" y1="60" x2="80" y2="450" stroke="#7b8794" stroke-width="1.5" />
  <line x1="80" y1="450" x2="920" y2="450" stroke="#7b8794" stroke-width="1.5" />
  <line x1="80" y1="450.0" x2="920" y2="450.0" stroke="#d9dde7" stroke-width="1" /><text x="68" y="455.0" text-anchor="end" font-size="12" fill="#5f6b7a">0.0%</text><line x1="80" y1="372.0" x2="920" y2="372.0" stroke="#d9dde7" stroke-width="1" /><text x="68" y="377.0" text-anchor="end" font-size="12" fill="#5f6b7a">20.0%</text><line x1="80" y1="294.0" x2="920" y2="294.0" stroke="#d9dde7" stroke-width="1" /><text x="68" y="299.0" text-anchor="end" font-size="12" fill="#5f6b7a">40.0%</text><line x1="80" y1="216.0" x2="920" y2="216.0" stroke="#d9dde7" stroke-width="1" /><text x="68" y="221.0" text-anchor="end" font-size="12" fill="#5f6b7a">60.0%</text><line x1="80" y1="138.0" x2="920" y2="138.0" stroke="#d9dde7" stroke-width="1" /><text x="68" y="143.0" text-anchor="end" font-size="12" fill="#5f6b7a">80.0%</text><line x1="80" y1="60.0" x2="920" y2="60.0" stroke="#d9dde7" stroke-width="1" /><text x="68" y="65.0" text-anchor="end" font-size="12" fill="#5f6b7a">100.0%</text>
  <rect x="96.8" y="369.8" width="42.8" height="80.2" rx="8" fill="#2ca58d" /><rect x="173.2" y="382.9" width="42.8" height="67.1" rx="8" fill="#2ca58d" /><rect x="249.5" y="399.3" width="42.8" height="50.7" rx="8" fill="#2ca58d" /><rect x="325.9" y="408.3" width="42.8" height="41.7" rx="8" fill="#2ca58d" /><rect x="402.3" y="409.2" width="42.8" height="40.8" rx="8" fill="#2ca58d" /><rect x="478.6" y="422.2" width="42.8" height="27.8" rx="8" fill="#2ca58d" /><rect x="555.0" y="423.8" width="42.8" height="26.2" rx="8" fill="#2ca58d" /><rect x="631.3" y="429.4" width="42.8" height="20.6" rx="8" fill="#2ca58d" /><rect x="707.7" y="429.5" width="42.8" height="20.5" rx="8" fill="#2ca58d" /><rect x="784.1" y="437.7" width="42.8" height="12.3" rx="8" fill="#2ca58d" /><rect x="860.4" y="447.9" width="42.8" height="2.1" rx="8" fill="#2ca58d" />
  <text x="118.2" y="359.8" text-anchor="middle" font-size="12" fill="#1f2933">20.6%</text><text x="194.5" y="372.9" text-anchor="middle" font-size="12" fill="#1f2933">17.2%</text><text x="270.9" y="389.3" text-anchor="middle" font-size="12" fill="#1f2933">13.0%</text><text x="347.3" y="398.3" text-anchor="middle" font-size="12" fill="#1f2933">10.7%</text><text x="423.6" y="399.2" text-anchor="middle" font-size="12" fill="#1f2933">10.4%</text><text x="500.0" y="412.2" text-anchor="middle" font-size="12" fill="#1f2933">7.1%</text><text x="576.4" y="413.8" text-anchor="middle" font-size="12" fill="#1f2933">6.7%</text><text x="652.7" y="419.4" text-anchor="middle" font-size="12" fill="#1f2933">5.3%</text><text x="729.1" y="419.5" text-anchor="middle" font-size="12" fill="#1f2933">5.2%</text><text x="805.5" y="427.7" text-anchor="middle" font-size="12" fill="#1f2933">3.1%</text><text x="881.8" y="437.9" text-anchor="middle" font-size="12" fill="#1f2933">0.5%</text>
  <text x="118.2" y="512" text-anchor="middle" font-size="12" fill="#5f6b7a">tiktok_ads</text><text x="194.5" y="512" text-anchor="middle" font-size="12" fill="#5f6b7a">amazon_ads</text><text x="270.9" y="512" text-anchor="middle" font-size="12" fill="#5f6b7a">paid_search</text><text x="347.3" y="512" text-anchor="middle" font-size="12" fill="#5f6b7a">paid_social</text><text x="423.6" y="512" text-anchor="middle" font-size="12" fill="#5f6b7a">organic_search</text><text x="500.0" y="512" text-anchor="middle" font-size="12" fill="#5f6b7a">organic_social</text><text x="576.4" y="512" text-anchor="middle" font-size="12" fill="#5f6b7a">walmart_ads</text><text x="652.7" y="512" text-anchor="middle" font-size="12" fill="#5f6b7a">direct</text><text x="729.1" y="512" text-anchor="middle" font-size="12" fill="#5f6b7a">ebay_promoted</text><text x="805.5" y="512" text-anchor="middle" font-size="12" fill="#5f6b7a">email</text><text x="881.8" y="512" text-anchor="middle" font-size="12" fill="#5f6b7a">affiliate</text>
</svg>