<svg xmlns="http://www.w3.org/2000/svg" width="960" height="540" viewBox="0 0 960 540">
  <rect width="100%" height="100%" fill="#f8fafc" />
  <text x="80" y="32" font-size="24" font-family="Arial, sans-serif" fill="#102a43">Listing Survival Curve</text>
  <line x1="80" y1="60" x2="80" y2="470" stroke="#7b8794" stroke-width="1.5" />
  <line x1="80" y1="470" x2="920" y2="470" stroke="#7b8794" stroke-width="1.5" />
  <line x1="80" y1="470.0" x2="920" y2="470.0" stroke="#d9dde7" stroke-width="1" /><text x="68" y="475.0" text-anchor="end" font-size="12" fill="#5f6b7a">0</text><line x1="80" y1="388.0" x2="920" y2="388.0" stroke="#d9dde7" stroke-width="1" /><text x="68" y="393.0" text-anchor="end" font-size="12" fill="#5f6b7a">0</text><line x1="80" y1="306.0" x2="920" y2="306.0" stroke="#d9dde7" stroke-width="1" /><text x="68" y="311.0" text-anchor="end" font-size="12" fill="#5f6b7a">0</text><line x1="80" y1="224.0" x2="920" y2="224.0" stroke="#d9dde7" stroke-width="1" /><text x="68" y="229.0" text-anchor="end" font-size="12" fill="#5f6b7a">1</text><line x1="80" y1="142.0" x2="920" y2="142.0" stroke="#d9dde7" stroke-width="1" /><text x="68" y="147.0" text-anchor="end" font-size="12" fill="#5f6b7a">1</text><line x1="80" y1="60.0" x2="920" y2="60.0" stroke="#d9dde7" stroke-width="1" /><text x="68" y="65.0" text-anchor="end" font-size="12" fill="#5f6b7a">1</text>
  <polyline fill="none" stroke="#1f77b4" stroke-width="3" points="80.0,97.3 920.0,469.6" />
  <circle cx="80.0" cy="97.3" r="4" fill="#1f77b4" /><circle cx="920.0" cy="469.6" r="4" fill="#1f77b4" />
  <text x="80.0" y="87.3" text-anchor="middle" font-size="11" fill="#1f77b4">1</text><text x="920.0" y="459.6" text-anchor="middle" font-size="11" fill="#1f77b4">0</text>
  <text x="80.0" y="515" text-anchor="middle" font-size="12" fill="#5f6b7a">0</text><text x="920.0" y="515" text-anchor="middle" font-size="12" fill="#5f6b7a">1</text>
</svg>