<svg xmlns="http://www.w3.org/2000/svg" width="960" height="540" viewBox="0 0 960 540">
  <rect width="100%" height="100%" fill="#f8fafc" />
  <text x="200" y="32" font-size="24" font-family="Arial, sans-serif" fill="#102a43">Top SKU GMV Share</text>
  <line x1="200.0" y1="60" x2="200.0" y2="500" stroke="#d9dde7" stroke-width="1" /><text x="200.0" y="528" text-anchor="middle" font-size="12" fill="#5f6b7a">0.0%</text><line x1="340.0" y1="60" x2="340.0" y2="500" stroke="#d9dde7" stroke-width="1" /><text x="340.0" y="528" text-anchor="middle" font-size="12" fill="#5f6b7a">20.0%</text><line x1="480.0" y1="60" x2="480.0" y2="500" stroke="#d9dde7" stroke-width="1" /><text x="480.0" y="528" text-anchor="middle" font-size="12" fill="#5f6b7a">40.0%</text><line x1="620.0" y1="60" x2="620.0" y2="500" stroke="#d9dde7" stroke-width="1" /><text x="620.0" y="528" text-anchor="middle" font-size="12" fill="#5f6b7a">60.0%</text><line x1="760.0" y1="60" x2="760.0" y2="500" stroke="#d9dde7" stroke-width="1" /><text x="760.0" y="528" text-anchor="middle" font-size="12" fill="#5f6b7a">80.0%</text><line x1="900.0" y1="60" x2="900.0" y2="500" stroke="#d9dde7" stroke-width="1" /><text x="900.0" y="528" text-anchor="middle" font-size="12" fill="#5f6b7a">100.0%</text>
  <rect x="200" y="79.4" width="90.0" height="49.3" rx="8" fill="#ef8354" /><rect x="200" y="167.4" width="26.2" height="49.3" rx="8" fill="#ef8354" /><rect x="200" y="255.4" width="17.4" height="49.3" rx="8" fill="#ef8354" /><rect x="200" y="343.4" width="16.6" height="49.3" rx="8" fill="#ef8354" /><rect x="200" y="431.4" width="15.8" height="49.3" rx="8" fill="#ef8354" />
  <text x="188" y="108.0" text-anchor="end" font-size="12" fill="#5f6b7a">B00WMMMHNM</text><text x="188" y="196.0" text-anchor="end" font-size="12" fill="#5f6b7a">B0B25H9G4K</text><text x="188" y="284.0" text-anchor="end" font-size="12" fill="#5f6b7a">B0CDFN6TKH</text><text x="188" y="372.0" text-anchor="end" font-size="12" fill="#5f6b7a">B0CGDF3Z4G</text><text x="188" y="460.0" text-anchor="end" font-size="12" fill="#5f6b7a">B07K7FQGVJ</text>
  <text x="299.9" y="108.0" font-size="12" fill="#1f2933">12.8%</text><text x="236.2" y="196.0" font-size="12" fill="#1f2933">3.8%</text><text x="227.4" y="284.0" font-size="12" fill="#1f2933">2.5%</text><text x="226.6" y="372.0" font-size="12" fill="#1f2933">2.4%</text><text x="225.8" y="460.0" font-size="12" fill="#1f2933">2.3%</text>
</svg>