<svg xmlns="http://www.w3.org/2000/svg" width="960" height="540" viewBox="0 0 960 540">
  <rect width="100%" height="100%" fill="#f8fafc" />
  <text x="200" y="32" font-size="24" font-family="Arial, sans-serif" fill="#102a43">Best Scenario Landed Cost Breakdown</text>
  <line x1="200.0" y1="60" x2="200.0" y2="500" stroke="#d9dde7" stroke-width="1" /><text x="200.0" y="528" text-anchor="middle" font-size="12" fill="#5f6b7a">0</text><line x1="340.0" y1="60" x2="340.0" y2="500" stroke="#d9dde7" stroke-width="1" /><text x="340.0" y="528" text-anchor="middle" font-size="12" fill="#5f6b7a">57.79</text><line x1="480.0" y1="60" x2="480.0" y2="500" stroke="#d9dde7" stroke-width="1" /><text x="480.0" y="528" text-anchor="middle" font-size="12" fill="#5f6b7a">115.59</text><line x1="620.0" y1="60" x2="620.0" y2="500" stroke="#d9dde7" stroke-width="1" /><text x="620.0" y="528" text-anchor="middle" font-size="12" fill="#5f6b7a">173.38</text><line x1="760.0" y1="60" x2="760.0" y2="500" stroke="#d9dde7" stroke-width="1" /><text x="760.0" y="528" text-anchor="middle" font-size="12" fill="#5f6b7a">231.18</text><line x1="900.0" y1="60" x2="900.0" y2="500" stroke="#d9dde7" stroke-width="1" /><text x="900.0" y="528" text-anchor="middle" font-size="12" fill="#5f6b7a">288.97</text>
  <rect x="200" y="73.8" width="636.4" height="35.2" rx="8" fill="#ef8354" /><rect x="200" y="136.7" width="108.0" height="35.2" rx="8" fill="#ef8354" /><rect x="200" y="199.5" width="67.8" height="35.2" rx="8" fill="#ef8354" /><rect x="200" y="262.4" width="63.6" height="35.2" rx="8" fill="#ef8354" /><rect x="200" y="325.3" width="25.4" height="35.2" rx="8" fill="#ef8354" /><rect x="200" y="388.1" width="18.0" height="35.2" rx="8" fill="#ef8354" /><rect x="200" y="451.0" width="2.3" height="35.2" rx="8" fill="#ef8354" />
  <text x="188" y="95.4" text-anchor="end" font-size="12" fill="#5f6b7a">procurement_cost</text><text x="188" y="158.3" text-anchor="end" font-size="12" fill="#5f6b7a">compliance_cost</text><text x="188" y="221.1" text-anchor="end" font-size="12" fill="#5f6b7a">logistics_cost</text><text x="188" y="284.0" text-anchor="end" font-size="12" fill="#5f6b7a">duty_cost</text><text x="188" y="346.9" text-anchor="end" font-size="12" fill="#5f6b7a">fees_cost</text><text x="188" y="409.7" text-anchor="end" font-size="12" fill="#5f6b7a">working_capital_cost</text><text x="188" y="472.6" text-anchor="end" font-size="12" fill="#5f6b7a">return_reserve</text>
  <text x="846.4" y="95.4" font-size="12" fill="#1f2933">262.70</text><text x="318.0" y="158.3" font-size="12" fill="#1f2933">44.60</text><text x="277.8" y="221.1" font-size="12" fill="#1f2933">28</text><text x="273.6" y="284.0" font-size="12" fill="#1f2933">26.27</text><text x="235.4" y="346.9" font-size="12" fill="#1f2933">10.50</text><text x="228.0" y="409.7" font-size="12" fill="#1f2933">7.44</text><text x="212.3" y="472.6" font-size="12" fill="#1f2933">0.96</text>
</svg>