<svg xmlns="http://www.w3.org/2000/svg" width="960" height="540" viewBox="0 0 960 540">
  <rect width="100%" height="100%" fill="#f8fafc" />
  <text x="80" y="32" font-size="24" font-family="Arial, sans-serif" fill="#102a43">Monte Carlo Net Margin Rate Band</text>
  <line x1="80" y1="60" x2="80" y2="450" stroke="#7b8794" stroke-width="1.5" />
  <line x1="80" y1="450" x2="920" y2="450" stroke="#7b8794" stroke-width="1.5" />
  <line x1="80" y1="450.0" x2="920" y2="450.0" stroke="#d9dde7" stroke-width="1" /><text x="68" y="455.0" text-anchor="end" font-size="12" fill="#5f6b7a">0.0%</text><line x1="80" y1="372.0" x2="920" y2="372.0" stroke="#d9dde7" stroke-width="1" /><text x="68" y="377.0" text-anchor="end" font-size="12" fill="#5f6b7a">20.0%</text><line x1="80" y1="294.0" x2="920" y2="294.0" stroke="#d9dde7" stroke-width="1" /><text x="68" y="299.0" text-anchor="end" font-size="12" fill="#5f6b7a">40.0%</text><line x1="80" y1="216.0" x2="920" y2="216.0" stroke="#d9dde7" stroke-width="1" /><text x="68" y="221.0" text-anchor="end" font-size="12" fill="#5f6b7a">60.0%</text><line x1="80" y1="138.0" x2="920" y2="138.0" stroke="#d9dde7" stroke-width="1" /><text x="68" y="143.0" text-anchor="end" font-size="12" fill="#5f6b7a">80.0%</text><line x1="80" y1="60.0" x2="920" y2="60.0" stroke="#d9dde7" stroke-width="1" /><text x="68" y="65.0" text-anchor="end" font-size="12" fill="#5f6b7a">100.0%</text>
  <rect x="141.6" y="385.3" width="156.8" height="64.7" rx="8" fill="#2ca58d" /><rect x="421.6" y="374.2" width="156.8" height="75.8" rx="8" fill="#2ca58d" /><rect x="701.6" y="364.5" width="156.8" height="85.5" rx="8" fill="#2ca58d" />
  <text x="220.0" y="375.3" text-anchor="middle" font-size="12" fill="#1f2933">16.6%</text><text x="500.0" y="364.2" text-anchor="middle" font-size="12" fill="#1f2933">19.4%</text><text x="780.0" y="354.5" text-anchor="middle" font-size="12" fill="#1f2933">21.9%</text>
  <text x="220.0" y="512" text-anchor="middle" font-size="12" fill="#5f6b7a">p10</text><text x="500.0" y="512" text-anchor="middle" font-size="12" fill="#5f6b7a">p50</text><text x="780.0" y="512" text-anchor="middle" font-size="12" fill="#5f6b7a">p90</text>
</svg>