<svg xmlns="http://www.w3.org/2000/svg" width="960" height="540" viewBox="0 0 960 540">
  <rect width="100%" height="100%" fill="#f8fafc" />
  <text x="200" y="32" font-size="24" font-family="Arial, sans-serif" fill="#102a43">Risk Priority</text>
  <line x1="200.0" y1="60" x2="200.0" y2="500" stroke="#d9dde7" stroke-width="1" /><text x="200.0" y="528" text-anchor="middle" font-size="12" fill="#5f6b7a">0</text><line x1="340.0" y1="60" x2="340.0" y2="500" stroke="#d9dde7" stroke-width="1" /><text x="340.0" y="528" text-anchor="middle" font-size="12" fill="#5f6b7a">0.20</text><line x1="480.0" y1="60" x2="480.0" y2="500" stroke="#d9dde7" stroke-width="1" /><text x="480.0" y="528" text-anchor="middle" font-size="12" fill="#5f6b7a">0.40</text><line x1="620.0" y1="60" x2="620.0" y2="500" stroke="#d9dde7" stroke-width="1" /><text x="620.0" y="528" text-anchor="middle" font-size="12" fill="#5f6b7a">0.60</text><line x1="760.0" y1="60" x2="760.0" y2="500" stroke="#d9dde7" stroke-width="1" /><text x="760.0" y="528" text-anchor="middle" font-size="12" fill="#5f6b7a">0.80</text><line x1="900.0" y1="60" x2="900.0" y2="500" stroke="#d9dde7" stroke-width="1" /><text x="900.0" y="528" text-anchor="middle" font-size="12" fill="#5f6b7a">1</text>
  <rect x="200" y="79.4" width="466.7" height="49.3" rx="8" fill="#ef8354" /><rect x="200" y="167.4" width="280.0" height="49.3" rx="8" fill="#ef8354" /><rect x="200" y="255.4" width="273.0" height="49.3" rx="8" fill="#ef8354" /><rect x="200" y="343.4" width="149.3" height="49.3" rx="8" fill="#ef8354" /><rect x="200" y="431.4" width="68.0" height="49.3" rx="8" fill="#ef8354" />
  <text x="188" y="108.0" text-anchor="end" font-size="12" fill="#5f6b7a">合规与认证风险</text><text x="188" y="196.0" text-anchor="end" font-size="12" fill="#5f6b7a">关税政策风险</text><text x="188" y="284.0" text-anchor="end" font-size="12" fill="#5f6b7a">物流交付风险</text><text x="188" y="372.0" text-anchor="end" font-size="12" fill="#5f6b7a">供应商执行风险</text><text x="188" y="460.0" text-anchor="end" font-size="12" fill="#5f6b7a">利润安全边际风险</text>
  <text x="676.7" y="108.0" font-size="12" fill="#1f2933">0.67</text><text x="490.0" y="196.0" font-size="12" fill="#1f2933">0.40</text><text x="483.0" y="284.0" font-size="12" fill="#1f2933">0.39</text><text x="359.3" y="372.0" font-size="12" fill="#1f2933">0.21</text><text x="278.0" y="460.0" font-size="12" fill="#1f2933">0.10</text>
</svg>