<svg xmlns="http://www.w3.org/2000/svg" width="960" height="540" viewBox="0 0 960 540">
  <rect width="100%" height="100%" fill="#f8fafc" />
  <text x="80" y="32" font-size="24" font-family="Arial, sans-serif" fill="#102a43">Market Demand Trend</text>
  <line x1="80" y1="60" x2="80" y2="470" stroke="#7b8794" stroke-width="1.5" />
  <line x1="80" y1="470" x2="920" y2="470" stroke="#7b8794" stroke-width="1.5" />
  <line x1="80" y1="470.0" x2="920" y2="470.0" stroke="#d9dde7" stroke-width="1" /><text x="68" y="475.0" text-anchor="end" font-size="12" fill="#5f6b7a">0</text><line x1="80" y1="388.0" x2="920" y2="388.0" stroke="#d9dde7" stroke-width="1" /><text x="68" y="393.0" text-anchor="end" font-size="12" fill="#5f6b7a">21</text><line x1="80" y1="306.0" x2="920" y2="306.0" stroke="#d9dde7" stroke-width="1" /><text x="68" y="311.0" text-anchor="end" font-size="12" fill="#5f6b7a">42</text><line x1="80" y1="224.0" x2="920" y2="224.0" stroke="#d9dde7" stroke-width="1" /><text x="68" y="229.0" text-anchor="end" font-size="12" fill="#5f6b7a">63</text><line x1="80" y1="142.0" x2="920" y2="142.0" stroke="#d9dde7" stroke-width="1" /><text x="68" y="147.0" text-anchor="end" font-size="12" fill="#5f6b7a">84</text><line x1="80" y1="60.0" x2="920" y2="60.0" stroke="#d9dde7" stroke-width="1" /><text x="68" y="65.0" text-anchor="end" font-size="12" fill="#5f6b7a">106</text>
  <polyline fill="none" stroke="#1f77b4" stroke-width="3" points="80.0,190.5 156.4,182.7 232.7,198.2 309.1,206.0 385.5,174.9 461.8,128.3 538.2,97.3 614.5,105.0 690.9,116.7 767.3,140.0 843.6,163.3 920.0,147.7" />
  <circle cx="80.0" cy="190.5" r="4" fill="#1f77b4" /><circle cx="156.4" cy="182.7" r="4" fill="#1f77b4" /><circle cx="232.7" cy="198.2" r="4" fill="#1f77b4" /><circle cx="309.1" cy="206.0" r="4" fill="#1f77b4" /><circle cx="385.5" cy="174.9" r="4" fill="#1f77b4" /><circle cx="461.8" cy="128.3" r="4" fill="#1f77b4" /><circle cx="538.2" cy="97.3" r="4" fill="#1f77b4" /><circle cx="614.5" cy="105.0" r="4" fill="#1f77b4" /><circle cx="690.9" cy="116.7" r="4" fill="#1f77b4" /><circle cx="767.3" cy="140.0" r="4" fill="#1f77b4" /><circle cx="843.6" cy="163.3" r="4" fill="#1f77b4" /><circle cx="920.0" cy="147.7" r="4" fill="#1f77b4" />
  <text x="80.0" y="180.5" text-anchor="middle" font-size="11" fill="#1f77b4">72</text><text x="156.4" y="172.7" text-anchor="middle" font-size="11" fill="#1f77b4">74</text><text x="232.7" y="188.2" text-anchor="middle" font-size="11" fill="#1f77b4">70</text><text x="309.1" y="196.0" text-anchor="middle" font-size="11" fill="#1f77b4">68</text><text x="385.5" y="164.9" text-anchor="middle" font-size="11" fill="#1f77b4">76</text><text x="461.8" y="118.3" text-anchor="middle" font-size="11" fill="#1f77b4">88</text><text x="538.2" y="87.3" text-anchor="middle" font-size="11" fill="#1f77b4">96</text><text x="614.5" y="95.0" text-anchor="middle" font-size="11" fill="#1f77b4">94</text><text x="690.9" y="106.7" text-anchor="middle" font-size="11" fill="#1f77b4">91</text><text x="767.3" y="130.0" text-anchor="middle" font-size="11" fill="#1f77b4">85</text><text x="843.6" y="153.3" text-anchor="middle" font-size="11" fill="#1f77b4">79</text><text x="920.0" y="137.7" text-anchor="middle" font-size="11" fill="#1f77b4">83</text>
  <text x="80.0" y="515" text-anchor="middle" font-size="12" fill="#5f6b7a">2025-01</text><text x="156.4" y="515" text-anchor="middle" font-size="12" fill="#5f6b7a">2025-02</text><text x="232.7" y="515" text-anchor="middle" font-size="12" fill="#5f6b7a">2025-03</text><text x="309.1" y="515" text-anchor="middle" font-size="12" fill="#5f6b7a">2025-04</text><text x="385.5" y="515" text-anchor="middle" font-size="12" fill="#5f6b7a">2025-05</text><text x="461.8" y="515" text-anchor="middle" font-size="12" fill="#5f6b7a">2025-06</text><text x="538.2" y="515" text-anchor="middle" font-size="12" fill="#5f6b7a">2025-07</text><text x="614.5" y="515" text-anchor="middle" font-size="12" fill="#5f6b7a">2025-08</text><text x="690.9" y="515" text-anchor="middle" font-size="12" fill="#5f6b7a">2025-09</text><text x="767.3" y="515" text-anchor="middle" font-size="12" fill="#5f6b7a">2025-10</text><text x="843.6" y="515" text-anchor="middle" font-size="12" fill="#5f6b7a">2025-11</text><text x="920.0" y="515" text-anchor="middle" font-size="12" fill="#5f6b7a">2025-12</text>
</svg>