<svg xmlns="http://www.w3.org/2000/svg" width="960" height="540" viewBox="0 0 960 540">
  <rect width="100%" height="100%" fill="#f8fafc" />
  <text x="80" y="32" font-size="24" font-family="Arial, sans-serif" fill="#102a43">Backtest Cumulative Return</text>
  <line x1="80" y1="60" x2="80" y2="470" stroke="#7b8794" stroke-width="1.5" />
  <line x1="80" y1="470" x2="920" y2="470" stroke="#7b8794" stroke-width="1.5" />
  <polyline fill="none" stroke="#1f77b4" stroke-width="3" points="80.0,433.0 124.2,427.8 168.4,423.0 212.6,418.2 256.8,410.9 301.1,402.9 345.3,393.9 389.5,383.4 433.7,372.2 477.9,358.5 522.1,342.9 566.3,325.1 610.5,304.8 654.7,282.1 698.9,255.9 743.2,225.9 787.4,192.1 831.6,158.1 875.8,116.9 920.0,79.5" />
  <polyline fill="none" stroke="#ef8354" stroke-width="3" points="80.0,434.7 124.2,431.8 168.4,428.8 212.6,425.3 256.8,421.7 301.1,417.5 345.3,413.2 389.5,408.8 433.7,403.6 477.9,398.2 522.1,391.3 566.3,384.0 610.5,375.7 654.7,367.0 698.9,358.4 743.2,349.0 787.4,336.8 831.6,324.0 875.8,311.3 920.0,297.3" />
  <text x="770" y="80" font-size="12" fill="#1f77b4">Strategy</text>
  <text x="770" y="100" font-size="12" fill="#ef8354">Benchmark</text>
  <text x="80.0" y="515" text-anchor="middle" font-size="12" fill="#5f6b7a">2024-04</text><text x="124.2" y="515" text-anchor="middle" font-size="12" fill="#5f6b7a">2024-05</text><text x="168.4" y="515" text-anchor="middle" font-size="12" fill="#5f6b7a">2024-06</text><text x="212.6" y="515" text-anchor="middle" font-size="12" fill="#5f6b7a">2024-07</text><text x="256.8" y="515" text-anchor="middle" font-size="12" fill="#5f6b7a">2024-08</text><text x="301.1" y="515" text-anchor="middle" font-size="12" fill="#5f6b7a">2024-09</text><text x="345.3" y="515" text-anchor="middle" font-size="12" fill="#5f6b7a">2024-10</text><text x="389.5" y="515" text-anchor="middle" font-size="12" fill="#5f6b7a">2024-11</text><text x="433.7" y="515" text-anchor="middle" font-size="12" fill="#5f6b7a">2024-12</text><text x="477.9" y="515" text-anchor="middle" font-size="12" fill="#5f6b7a">2025-01</text><text x="522.1" y="515" text-anchor="middle" font-size="12" fill="#5f6b7a">2025-02</text><text x="566.3" y="515" text-anchor="middle" font-size="12" fill="#5f6b7a">2025-03</text><text x="610.5" y="515" text-anchor="middle" font-size="12" fill="#5f6b7a">2025-04</text><text x="654.7" y="515" text-anchor="middle" font-size="12" fill="#5f6b7a">2025-05</text><text x="698.9" y="515" text-anchor="middle" font-size="12" fill="#5f6b7a">2025-06</text><text x="743.2" y="515" text-anchor="middle" font-size="12" fill="#5f6b7a">2025-07</text><text x="787.4" y="515" text-anchor="middle" font-size="12" fill="#5f6b7a">2025-08</text><text x="831.6" y="515" text-anchor="middle" font-size="12" fill="#5f6b7a">2025-09</text><text x="875.8" y="515" text-anchor="middle" font-size="12" fill="#5f6b7a">2025-10</text><text x="920.0" y="515" text-anchor="middle" font-size="12" fill="#5f6b7a">2025-11</text>
</svg>