<svg xmlns="http://www.w3.org/2000/svg" width="960" height="540" viewBox="0 0 960 540">
  <rect width="100%" height="100%" fill="#f8fafc" />
  <text x="80" y="32" font-size="24" font-family="Arial, sans-serif" fill="#102a43">Backtest Cumulative Return</text>
  <line x1="80" y1="60" x2="80" y2="470" stroke="#7b8794" stroke-width="1.5" />
  <line x1="80" y1="470" x2="920" y2="470" stroke="#7b8794" stroke-width="1.5" />
  <polyline fill="none" stroke="#1f77b4" stroke-width="3" points="80.0,429.4 124.2,424.5 168.4,419.1 212.6,412.5 256.8,405.5 301.1,397.6 345.3,388.2 389.5,377.9 433.7,366.4 477.9,353.3 522.1,338.2 566.3,321.1 610.5,301.8 654.7,279.9 698.9,256.5 743.2,229.2 787.4,198.0 831.6,162.6 875.8,122.7 920.0,79.5" />
  <polyline fill="none" stroke="#ef8354" stroke-width="3" points="80.0,429.9 124.2,425.3 168.4,420.4 212.6,414.6 256.8,408.6 301.1,401.4 345.3,393.1 389.5,384.4 433.7,374.4 477.9,363.7 522.1,350.8 566.3,336.3 610.5,319.6 654.7,301.8 698.9,283.4 743.2,262.8 787.4,236.7 831.6,208.7 875.8,177.8 920.0,142.8" />
  <text x="770" y="80" font-size="12" fill="#1f77b4">Strategy</text>
  <text x="770" y="100" font-size="12" fill="#ef8354">Benchmark</text>
  <text x="80.0" y="515" text-anchor="middle" font-size="12" fill="#5f6b7a">2024-04</text><text x="124.2" y="515" text-anchor="middle" font-size="12" fill="#5f6b7a">2024-05</text><text x="168.4" y="515" text-anchor="middle" font-size="12" fill="#5f6b7a">2024-06</text><text x="212.6" y="515" text-anchor="middle" font-size="12" fill="#5f6b7a">2024-07</text><text x="256.8" y="515" text-anchor="middle" font-size="12" fill="#5f6b7a">2024-08</text><text x="301.1" y="515" text-anchor="middle" font-size="12" fill="#5f6b7a">2024-09</text><text x="345.3" y="515" text-anchor="middle" font-size="12" fill="#5f6b7a">2024-10</text><text x="389.5" y="515" text-anchor="middle" font-size="12" fill="#5f6b7a">2024-11</text><text x="433.7" y="515" text-anchor="middle" font-size="12" fill="#5f6b7a">2024-12</text><text x="477.9" y="515" text-anchor="middle" font-size="12" fill="#5f6b7a">2025-01</text><text x="522.1" y="515" text-anchor="middle" font-size="12" fill="#5f6b7a">2025-02</text><text x="566.3" y="515" text-anchor="middle" font-size="12" fill="#5f6b7a">2025-03</text><text x="610.5" y="515" text-anchor="middle" font-size="12" fill="#5f6b7a">2025-04</text><text x="654.7" y="515" text-anchor="middle" font-size="12" fill="#5f6b7a">2025-05</text><text x="698.9" y="515" text-anchor="middle" font-size="12" fill="#5f6b7a">2025-06</text><text x="743.2" y="515" text-anchor="middle" font-size="12" fill="#5f6b7a">2025-07</text><text x="787.4" y="515" text-anchor="middle" font-size="12" fill="#5f6b7a">2025-08</text><text x="831.6" y="515" text-anchor="middle" font-size="12" fill="#5f6b7a">2025-09</text><text x="875.8" y="515" text-anchor="middle" font-size="12" fill="#5f6b7a">2025-10</text><text x="920.0" y="515" text-anchor="middle" font-size="12" fill="#5f6b7a">2025-11</text>
</svg>