<svg xmlns="http://www.w3.org/2000/svg" width="960" height="540" viewBox="0 0 960 540">
  <rect width="100%" height="100%" fill="#f8fafc" />
  <text x="200" y="32" font-size="24" font-family="Arial, sans-serif" fill="#102a43">Negative Theme Intensity</text>
  <line x1="200.0" y1="60" x2="200.0" y2="500" stroke="#d9dde7" stroke-width="1" /><text x="200.0" y="528" text-anchor="middle" font-size="12" fill="#5f6b7a">0</text><line x1="340.0" y1="60" x2="340.0" y2="500" stroke="#d9dde7" stroke-width="1" /><text x="340.0" y="528" text-anchor="middle" font-size="12" fill="#5f6b7a">0.25</text><line x1="480.0" y1="60" x2="480.0" y2="500" stroke="#d9dde7" stroke-width="1" /><text x="480.0" y="528" text-anchor="middle" font-size="12" fill="#5f6b7a">0.51</text><line x1="620.0" y1="60" x2="620.0" y2="500" stroke="#d9dde7" stroke-width="1" /><text x="620.0" y="528" text-anchor="middle" font-size="12" fill="#5f6b7a">0.76</text><line x1="760.0" y1="60" x2="760.0" y2="500" stroke="#d9dde7" stroke-width="1" /><text x="760.0" y="528" text-anchor="middle" font-size="12" fill="#5f6b7a">1.01</text><line x1="900.0" y1="60" x2="900.0" y2="500" stroke="#d9dde7" stroke-width="1" /><text x="900.0" y="528" text-anchor="middle" font-size="12" fill="#5f6b7a">1.27</text>
  <rect x="200" y="79.4" width="636.4" height="49.3" rx="8" fill="#ef8354" /><rect x="200" y="167.4" width="359.7" height="49.3" rx="8" fill="#ef8354" /><rect x="200" y="255.4" width="166.0" height="49.3" rx="8" fill="#ef8354" /><rect x="200" y="343.4" width="83.0" height="49.3" rx="8" fill="#ef8354" /><rect x="200" y="431.4" width="83.0" height="49.3" rx="8" fill="#ef8354" />
  <text x="188" y="108.0" text-anchor="end" font-size="12" fill="#5f6b7a">quality_issue</text><text x="188" y="196.0" text-anchor="end" font-size="12" fill="#5f6b7a">shipping_damage</text><text x="188" y="284.0" text-anchor="end" font-size="12" fill="#5f6b7a">power_performance</text><text x="188" y="372.0" text-anchor="end" font-size="12" fill="#5f6b7a">value_for_money</text><text x="188" y="460.0" text-anchor="end" font-size="12" fill="#5f6b7a">ease_of_use</text>
  <text x="846.4" y="108.0" font-size="12" fill="#1f2933">1.15</text><text x="569.7" y="196.0" font-size="12" fill="#1f2933">0.65</text><text x="376.0" y="284.0" font-size="12" fill="#1f2933">0.30</text><text x="293.0" y="372.0" font-size="12" fill="#1f2933">0.15</text><text x="293.0" y="460.0" font-size="12" fill="#1f2933">0.15</text>
</svg>