<svg xmlns="http://www.w3.org/2000/svg" width="960" height="540" viewBox="0 0 960 540">
  <rect width="100%" height="100%" fill="#f8fafc" />
  <text x="80" y="32" font-size="24" font-family="Arial, sans-serif" fill="#102a43">Sweet Spot Price Band Share</text>
  <line x1="80" y1="60" x2="80" y2="450" stroke="#7b8794" stroke-width="1.5" />
  <line x1="80" y1="450" x2="920" y2="450" stroke="#7b8794" stroke-width="1.5" />
  <line x1="80" y1="450.0" x2="920" y2="450.0" stroke="#d9dde7" stroke-width="1" /><text x="68" y="455.0" text-anchor="end" font-size="12" fill="#5f6b7a">0.0%</text><line x1="80" y1="372.0" x2="920" y2="372.0" stroke="#d9dde7" stroke-width="1" /><text x="68" y="377.0" text-anchor="end" font-size="12" fill="#5f6b7a">20.0%</text><line x1="80" y1="294.0" x2="920" y2="294.0" stroke="#d9dde7" stroke-width="1" /><text x="68" y="299.0" text-anchor="end" font-size="12" fill="#5f6b7a">40.0%</text><line x1="80" y1="216.0" x2="920" y2="216.0" stroke="#d9dde7" stroke-width="1" /><text x="68" y="221.0" text-anchor="end" font-size="12" fill="#5f6b7a">60.0%</text><line x1="80" y1="138.0" x2="920" y2="138.0" stroke="#d9dde7" stroke-width="1" /><text x="68" y="143.0" text-anchor="end" font-size="12" fill="#5f6b7a">80.0%</text><line x1="80" y1="60.0" x2="920" y2="60.0" stroke="#d9dde7" stroke-width="1" /><text x="68" y="65.0" text-anchor="end" font-size="12" fill="#5f6b7a">100.0%</text>
  <rect x="110.8" y="403.4" width="78.4" height="46.6" rx="8" fill="#2ca58d" /><rect x="250.8" y="450.0" width="78.4" height="0.0" rx="8" fill="#2ca58d" /><rect x="390.8" y="356.8" width="78.4" height="93.2" rx="8" fill="#2ca58d" /><rect x="530.8" y="267.6" width="78.4" height="182.4" rx="8" fill="#2ca58d" /><rect x="670.8" y="450.0" width="78.4" height="0.0" rx="8" fill="#2ca58d" /><rect x="810.8" y="382.1" width="78.4" height="67.9" rx="8" fill="#2ca58d" />
  <text x="150.0" y="393.4" text-anchor="middle" font-size="12" fill="#1f2933">11.9%</text><text x="290.0" y="440.0" text-anchor="middle" font-size="12" fill="#1f2933">0.0%</text><text x="430.0" y="346.8" text-anchor="middle" font-size="12" fill="#1f2933">23.9%</text><text x="570.0" y="257.6" text-anchor="middle" font-size="12" fill="#1f2933">46.8%</text><text x="710.0" y="440.0" text-anchor="middle" font-size="12" fill="#1f2933">0.0%</text><text x="850.0" y="372.1" text-anchor="middle" font-size="12" fill="#1f2933">17.4%</text>
  <text x="150.0" y="512" text-anchor="middle" font-size="12" fill="#5f6b7a">$399-$474</text><text x="290.0" y="512" text-anchor="middle" font-size="12" fill="#5f6b7a">$474-$549</text><text x="430.0" y="512" text-anchor="middle" font-size="12" fill="#5f6b7a">$549-$624</text><text x="570.0" y="512" text-anchor="middle" font-size="12" fill="#5f6b7a">$624-$699</text><text x="710.0" y="512" text-anchor="middle" font-size="12" fill="#5f6b7a">$699-$774</text><text x="850.0" y="512" text-anchor="middle" font-size="12" fill="#5f6b7a">$774-$849</text>
</svg>